<svg width="14" height="16" viewBox="0 0 14 16" fill="none" xmlns="http://www.w3.org/2000/svg">
<path d="M1 6.76001C0.447715 6.76001 0 7.20772 0 7.76001C0 8.31229 0.447715 8.76001 1 8.76001V6.76001ZM13.7071 8.46712C14.0976 8.07659 14.0976 7.44343 13.7071 7.0529L7.34315 0.688942C6.95262 0.298418 6.31946 0.298418 5.92893 0.688942C5.53841 1.07947 5.53841 1.71263 5.92893 2.10316L11.5858 7.76001L5.92893 13.4169C5.53841 13.8074 5.53841 14.4406 5.92893 14.8311C6.31946 15.2216 6.95262 15.2216 7.34315 14.8311L13.7071 8.46712ZM1 8.76001H13V6.76001H1V8.76001Z" fill="white"/>
</svg>
