<svg width="17" height="14" viewBox="0 0 17 14" fill="none" xmlns="http://www.w3.org/2000/svg">
<path d="M1.08319 6.34822C2.71843 5.44747 4.54381 4.69571 6.24936 3.94009C9.18357 2.70246 12.1294 1.48628 15.105 0.354025C15.684 0.1611 16.7242 -0.0275696 16.8262 0.830392C16.7703 2.04483 16.5406 3.25215 16.383 4.45948C15.983 7.11449 15.5207 9.76042 15.0698 12.4067C14.9145 13.2881 13.8103 13.7445 13.1037 13.1804C11.4058 12.0334 9.69473 10.8977 8.01844 9.72417C7.46934 9.1662 7.97852 8.36495 8.46893 7.96651C9.86743 6.58829 11.3506 5.41734 12.676 3.9679C13.0335 3.10452 11.9771 3.83215 11.6287 4.05509C9.71414 5.37444 7.84644 6.77434 5.8279 7.93387C4.79683 8.50146 3.5951 8.0164 2.5645 7.69968C1.64043 7.3171 0.286425 6.93159 1.08319 6.34822Z" fill="white" fill-opacity="0.6"/>
</svg>
