<svg width="19" height="19" viewBox="0 0 19 19" fill="none" xmlns="http://www.w3.org/2000/svg">
<path fill-rule="evenodd" clip-rule="evenodd" d="M9.51444 2.19128C9.51444 2.19128 10.982 2.19128 12.3231 2.75852C12.3231 2.75852 13.618 3.30622 14.6164 4.30456C14.6164 4.30456 15.6147 5.30291 16.1624 6.59783C16.1624 6.59783 16.7296 7.93892 16.7296 9.40647C16.7296 9.40647 16.7296 10.874 16.1624 12.2151C16.1624 12.2151 15.6147 13.51 14.6164 14.5084C14.6164 14.5084 13.618 15.5067 12.3231 16.0544C12.3231 16.0544 10.982 16.6217 9.51444 16.6217C9.51444 16.6217 8.04689 16.6217 6.7058 16.0544C6.7058 16.0544 5.41088 15.5067 4.41254 14.5084C4.41254 14.5084 3.41419 13.51 2.86649 12.2151C2.86649 12.2151 2.29926 10.874 2.29926 9.40647C2.29926 9.40647 2.29926 7.93892 2.86649 6.59783C2.86649 6.59783 3.41419 5.30291 4.41254 4.30456C4.41254 4.30456 5.41088 3.30622 6.7058 2.75852C6.7058 2.75852 8.04689 2.19128 9.51444 2.19128ZM9.51444 3.30131C9.51444 3.30131 8.27199 3.30131 7.13821 3.78086C7.13821 3.78086 6.04269 4.24422 5.19744 5.08947C5.19744 5.08947 4.3522 5.93472 3.88883 7.03024C3.88883 7.03024 3.40928 8.16401 3.40928 9.40647C3.40928 9.40647 3.40928 10.6489 3.88883 11.7827C3.88883 11.7827 4.3522 12.8782 5.19744 13.7235C5.19744 13.7235 6.04269 14.5687 7.13821 15.0321C7.13821 15.0321 8.27199 15.5116 9.51444 15.5116C9.51444 15.5116 10.7569 15.5116 11.8907 15.0321C11.8907 15.0321 12.9862 14.5687 13.8314 13.7235C13.8314 13.7235 14.6767 12.8782 15.1401 11.7827C15.1401 11.7827 15.6196 10.6489 15.6196 9.40647C15.6196 9.40647 15.6196 8.16402 15.1401 7.03024C15.1401 7.03024 14.6767 5.93472 13.8314 5.08947C13.8314 5.08947 12.9862 4.24422 11.8907 3.78086C11.8907 3.78086 10.7569 3.30131 9.51444 3.30131Z" fill="white" fill-opacity="0.6"/>
<path d="M3.23586 7.74144H15.7931C16.0996 7.74144 16.3481 7.49295 16.3481 7.18642C16.3481 6.8799 16.0996 6.63141 15.7931 6.63141H3.23586C2.92934 6.63141 2.68085 6.8799 2.68085 7.18642C2.68085 7.49295 2.92934 7.74144 3.23586 7.74144Z" fill="white" fill-opacity="0.6"/>
<path d="M3.23586 12.1816H15.7931C16.0996 12.1816 16.3481 11.9331 16.3481 11.6265C16.3481 11.32 16.0996 11.0715 15.7931 11.0715H3.23586C2.92934 11.0715 2.68085 11.32 2.68085 11.6265C2.68085 11.9331 2.92934 12.1816 3.23586 12.1816Z" fill="white" fill-opacity="0.6"/>
<path fill-rule="evenodd" clip-rule="evenodd" d="M9.51447 2.3717C9.51447 2.3717 10.3069 2.3717 10.9847 3.04104C10.9847 3.04104 11.56 3.60931 11.9869 4.60611C11.9869 4.60611 12.8446 6.60865 12.8446 9.40651C12.8446 9.40651 12.8446 12.2044 11.9869 14.2069C11.9869 14.2069 11.56 15.2037 10.9847 15.772C10.9847 15.772 10.3069 16.4413 9.51447 16.4413C9.51447 16.4413 8.72201 16.4413 8.04429 15.772C8.04429 15.772 7.4689 15.2037 7.04201 14.2069C7.04201 14.2069 6.18439 12.2044 6.18439 9.40651C6.18439 9.40651 6.18439 6.60865 7.04201 4.60611C7.04201 4.60611 7.4689 3.60931 8.04429 3.04104C8.04429 3.04104 8.72201 2.3717 9.51447 2.3717ZM9.51447 3.48173C9.51447 3.48173 9.17776 3.48173 8.82429 3.83082C8.82429 3.83082 8.40366 4.24625 8.0624 5.04311C8.0624 5.04311 7.29442 6.83634 7.29442 9.40651C7.29442 9.40651 7.29442 11.9767 8.0624 13.7699C8.0624 13.7699 8.40366 14.5668 8.82429 14.9822C8.82429 14.9822 9.17776 15.3313 9.51447 15.3313C9.51447 15.3313 9.85119 15.3313 10.2047 14.9822C10.2047 14.9822 10.6253 14.5668 10.9666 13.7699C10.9666 13.7699 11.7345 11.9767 11.7345 9.40651C11.7345 9.40651 11.7345 6.83634 10.9666 5.04311C10.9666 5.04311 10.6253 4.24625 10.2047 3.83082C10.2047 3.83082 9.85119 3.48173 9.51447 3.48173Z" fill="white" fill-opacity="0.6"/>
</svg>
