<svg width="17" height="15" viewBox="0 0 17 15" fill="none" xmlns="http://www.w3.org/2000/svg">
<path d="M12.6521 6.532V6.5C12.6521 5.17392 12.1473 3.90215 11.2487 2.96447C10.35 2.02678 9.13126 1.5 7.86043 1.5C6.5896 1.5 5.37082 2.02678 4.47221 2.96447C3.5736 3.90215 3.06876 5.17392 3.06876 6.5V9.004C3.06869 9.16259 3.02634 9.31804 2.94646 9.45296C2.86658 9.58788 2.75231 9.69696 2.61643 9.768L2.13439 10.019C1.77602 10.2056 1.48856 10.513 1.31865 10.8914C1.14874 11.2698 1.10633 11.6971 1.19832 12.1038C1.2903 12.5105 1.51127 12.8729 1.82539 13.1322C2.13951 13.3914 2.52835 13.5323 2.92885 13.532H12.792C13.0318 13.6572 13.2955 13.7241 13.5636 13.7278C13.8317 13.7315 14.0971 13.6719 14.3399 13.5534C14.5827 13.4348 14.7967 13.2605 14.9658 13.0434C15.1349 12.8264 15.2548 12.5722 15.3163 12.2999C15.3779 12.0277 15.3797 11.7444 15.3215 11.4713C15.2632 11.1983 15.1465 10.9425 14.9801 10.7232C14.8137 10.5038 14.6019 10.3267 14.3605 10.2049C14.1192 10.0831 13.8546 10.0199 13.5865 10.02L13.1044 9.769C12.9685 9.6977 12.8543 9.58842 12.7744 9.45335C12.6946 9.31828 12.6522 9.16271 12.6521 9.004V6.532V6.532Z" stroke="white" stroke-width="1.5" stroke-linecap="round" stroke-linejoin="round"/>
</svg>
