<svg width="12" height="11" viewBox="0 0 12 11" fill="none" xmlns="http://www.w3.org/2000/svg">
<path d="M0 1.26001C0 0.994793 0.105357 0.74044 0.292893 0.552903C0.48043 0.365367 0.734784 0.26001 1 0.26001H11C11.2652 0.26001 11.5196 0.365367 11.7071 0.552903C11.8946 0.74044 12 0.994793 12 1.26001C12 1.52523 11.8946 1.77958 11.7071 1.96712C11.5196 2.15465 11.2652 2.26001 11 2.26001H1C0.734784 2.26001 0.48043 2.15465 0.292893 1.96712C0.105357 1.77958 0 1.52523 0 1.26001ZM2 5.26001C2 4.99479 2.10536 4.74044 2.29289 4.5529C2.48043 4.36537 2.73478 4.26001 3 4.26001H9C9.26522 4.26001 9.51957 4.36537 9.70711 4.5529C9.89464 4.74044 10 4.99479 10 5.26001C10 5.52523 9.89464 5.77958 9.70711 5.96712C9.51957 6.15465 9.26522 6.26001 9 6.26001H3C2.73478 6.26001 2.48043 6.15465 2.29289 5.96712C2.10536 5.77958 2 5.52523 2 5.26001ZM5 8.26001C4.73478 8.26001 4.48043 8.36537 4.29289 8.5529C4.10536 8.74044 4 8.99479 4 9.26001C4 9.52523 4.10536 9.77958 4.29289 9.96712C4.48043 10.1547 4.73478 10.26 5 10.26H7C7.26522 10.26 7.51957 10.1547 7.70711 9.96712C7.89464 9.77958 8 9.52523 8 9.26001C8 8.99479 7.89464 8.74044 7.70711 8.5529C7.51957 8.36537 7.26522 8.26001 7 8.26001H5Z" fill="white"/>
</svg>
