<svg width="48" height="54" viewBox="0 0 48 54" fill="none" xmlns="http://www.w3.org/2000/svg">
<path d="M46.221 41.0741L41.9145 36.7674C42.1612 36.5724 42.3863 36.346 42.5807 36.079C43.5683 34.7222 43.328 32.9384 43.1157 31.3649C42.9818 30.3707 42.843 29.343 43.0541 28.6936C43.2483 28.0954 43.9425 27.3742 44.6142 26.6765C45.7377 25.5091 47.0111 24.1863 47.0111 22.4416C47.0111 20.6969 45.7377 19.3738 44.6142 18.2067C43.9428 17.5092 43.2483 16.7877 43.0543 16.1898C42.843 15.5401 42.9818 14.5122 43.1157 13.518C43.3278 11.9442 43.5683 10.1607 42.581 8.80411C41.5843 7.43466 39.8032 7.11292 38.2319 6.82933C37.2533 6.65248 36.2413 6.46994 35.7023 6.07761C35.176 5.69469 34.6962 4.79733 34.2326 3.92945C33.4742 2.51121 32.6152 0.903988 30.9832 0.374193C30.6446 0.264717 30.2823 0.20874 29.9063 0.20874C28.6963 0.20874 27.5233 0.772964 26.3889 1.31836C25.471 1.75998 24.5219 2.21646 23.8138 2.21646C23.1054 2.21646 22.1565 1.75998 21.2386 1.31836C20.1039 0.772964 18.9312 0.20874 17.721 0.20874C17.345 0.20874 16.9829 0.264717 16.6441 0.374441C15.0123 0.904484 14.1529 2.5117 13.3947 3.92994C12.931 4.79758 12.4513 5.69469 11.9252 6.07761C11.3862 6.46994 10.3742 6.65248 9.39559 6.82933C7.82429 7.11292 6.04344 7.43442 5.04627 8.80435C4.059 10.1612 4.29925 11.9447 4.51152 13.518C4.64551 14.5122 4.78422 15.5401 4.57294 16.1898C4.37901 16.7877 3.6845 17.5092 3.01303 18.2069C1.88954 19.3743 0.616195 20.6971 0.616195 22.4418C0.616195 24.1863 1.88954 25.5091 3.01278 26.6762C3.6845 27.3739 4.37901 28.0954 4.57294 28.6936C4.78422 29.3433 4.64551 30.3712 4.51152 31.3651C4.2995 32.9389 4.059 34.7225 5.04627 36.079C5.24243 36.3488 5.46981 36.5764 5.71922 36.7726L1.4177 41.0741C0.259778 42.2322 0.474024 43.2772 0.620158 43.6725C0.766044 44.0681 1.28147 45.0018 2.91396 45.1306L7.16025 45.466C7.91444 45.5257 8.62802 46.2393 8.68746 46.9932L9.02283 51.2398C9.16326 53.0211 10.2612 53.6534 11.1586 53.6534C11.6161 53.6534 12.3207 53.4942 13.0794 52.7358L23.0014 42.8141C23.2931 42.7241 23.5685 42.6669 23.8138 42.6669C24.0637 42.6669 24.3445 42.7259 24.6423 42.8188L34.5593 52.7358C35.3177 53.4944 36.0221 53.6534 36.4798 53.6534C37.3772 53.6534 38.4751 53.0213 38.6158 51.2398L38.9512 46.9935C39.0109 46.2393 39.7245 45.5257 40.4782 45.466L44.7249 45.1306C46.3574 45.0018 46.8729 44.0681 47.0187 43.6725C47.1646 43.2772 47.3789 42.2322 46.221 41.0741ZM27.9548 24.8882L30.4864 32.66L23.8586 27.8349L17.2308 32.6454L19.7626 24.8907L13.1349 20.1119H21.3273L23.8588 12.3205L26.3904 20.1119H34.5828L27.9548 24.8882Z" fill="white"/>
</svg>
