<svg width="24" height="25" viewBox="0 0 24 25" fill="none" xmlns="http://www.w3.org/2000/svg">
<path d="M22.1758 24.125L14.0383 15.9875C13.3925 16.5042 12.6498 16.9132 11.8102 17.2146C10.9706 17.516 10.0772 17.6667 9.12996 17.6667C6.78344 17.6667 4.79771 16.8538 3.1728 15.228C1.54788 13.6022 0.734993 11.6165 0.734132 9.27083C0.73327 6.92517 1.54616 4.93944 3.1728 3.31367C4.79944 1.68789 6.78516 0.875 9.12996 0.875C11.4748 0.875 13.4609 1.68789 15.0884 3.31367C16.7159 4.93944 17.5284 6.92517 17.5258 9.27083C17.5258 10.2181 17.3751 11.1115 17.0737 11.951C16.7723 12.7906 16.3633 13.5333 15.8466 14.1792L23.9841 22.3167L22.1758 24.125ZM9.12996 15.0833C10.7445 15.0833 12.1172 14.5184 13.2478 13.3887C14.3784 12.2589 14.9433 10.8863 14.9425 9.27083C14.9416 7.65539 14.3767 6.28321 13.2478 5.15429C12.1189 4.02538 10.7463 3.46006 9.12996 3.45833C7.51366 3.45661 6.14148 4.02193 5.01342 5.15429C3.88537 6.28665 3.32005 7.65883 3.31746 9.27083C3.31488 10.8828 3.8802 12.2554 5.01342 13.3887C6.14665 14.5219 7.51883 15.0868 9.12996 15.0833Z" fill="#898989"/>
</svg>
